<?xml version="1.0" encoding="UTF-8" standalone="no"?>
<!-- Created with Inkscape (http://www.inkscape.org/) -->

<svg
   width="300mm"
   height="300mm"
   viewBox="0 0 300.00001 300.00001"
   version="1.1"
   id="svg1"
   xml:space="preserve"
   inkscape:version="1.3.2 (091e20ef0f, 2023-11-25, custom)"
   sodipodi:docname="woowoo_logo_black_on_white.svg"
   xmlns:inkscape="http://www.inkscape.org/namespaces/inkscape"
   xmlns:sodipodi="http://sodipodi.sourceforge.net/DTD/sodipodi-0.dtd"
   xmlns="http://www.w3.org/2000/svg"
   xmlns:svg="http://www.w3.org/2000/svg"><sodipodi:namedview
     id="namedview1"
     pagecolor="#ffffff"
     bordercolor="#666666"
     borderopacity="1.0"
     inkscape:showpageshadow="2"
     inkscape:pageopacity="0.0"
     inkscape:pagecheckerboard="0"
     inkscape:deskcolor="#d1d1d1"
     inkscape:document-units="mm"
     inkscape:zoom="0.69931958"
     inkscape:cx="503.34641"
     inkscape:cy="564.11977"
     inkscape:window-width="1912"
     inkscape:window-height="1013"
     inkscape:window-x="0"
     inkscape:window-y="0"
     inkscape:window-maximized="1"
     inkscape:current-layer="g2" /><defs
     id="defs1"><inkscape:path-effect
       effect="fillet_chamfer"
       id="path-effect16"
       is_visible="true"
       lpeversion="1"
       nodesatellites_param="F,0,0,1,0,40.289783,0,1 @ F,0,0,1,0,40.722266,0,1 @ F,0,0,1,0,38.105707,0,1 @ F,0,0,1,0,39.154121,0,1"
       radius="0"
       unit="px"
       method="auto"
       mode="F"
       chamfer_steps="1"
       flexible="false"
       use_knot_distance="true"
       apply_no_radius="true"
       apply_with_radius="true"
       only_selected="false"
       hide_knots="false" /><inkscape:path-effect
       effect="fillet_chamfer"
       id="path-effect15"
       is_visible="true"
       lpeversion="1"
       nodesatellites_param="F,0,0,1,0,0,0,1 @ F,0,0,1,0,0,0,1 @ F,0,0,1,0,0,0,1 @ F,0,0,1,0,0,0,1"
       radius="0"
       unit="px"
       method="auto"
       mode="F"
       chamfer_steps="1"
       flexible="false"
       use_knot_distance="true"
       apply_no_radius="true"
       apply_with_radius="true"
       only_selected="false"
       hide_knots="false" /></defs><g
     inkscape:label="Layer 1"
     inkscape:groupmode="layer"
     id="layer1"
     transform="translate(15.175469,-54.643712)"><g
       id="g2"
       transform="translate(18.832984,77.324449)"><path
         style="opacity:1;fill:#cccccc;fill-opacity:1;stroke:none;stroke-width:0.264999;stroke-dasharray:none"
         id="rect15"
         width="297.24869"
         height="296.68451"
         x="-32.499798"
         y="-21.035839"
         sodipodi:type="rect"
         inkscape:path-effect="#path-effect16"
         d="M 7.7899852,-21.035839 H 224.02662 a 40.722266,40.722266 45 0 1 40.72227,40.722266 V 237.54296 a 38.105707,38.105707 135 0 1 -38.10571,38.10571 H 6.6543232 A 39.154121,39.154121 45 0 1 -32.499798,236.49455 V 19.253944 A 40.289783,40.289783 135 0 1 7.7899852,-21.035839 Z" /><path
         style="fill:#000000"
         d="m 6.9182337,199.60682 c -5.4826567,-0.27645 -7.30998681,-0.48595 -10.4199202,-1.19465 -3.3211333,-0.75682 -10.4653545,-2.9787 -11.0113285,-3.42456 -0.615723,-0.50282 -0.549572,-0.96214 0.176389,-1.22474 0.339549,-0.12282 2.760486,-1.16413 5.379861,-2.31402 5.3853691,-2.36415 11.1814076,-5.71018 15.3458321,-8.8591 5.9013799,-4.4623 13.6754439,-12.87177 17.5833579,-19.02051 1.694937,-2.66683 5.387058,-10.04247 6.483838,-12.95257 2.162068,-5.73665 2.623556,-8.25006 2.820932,-15.36373 0.185952,-6.70194 0.184123,-6.7234 -0.656408,-7.70057 -1.044401,-1.21419 -2.947096,-1.6915 -4.223735,-1.05956 -1.61508,0.79946 -1.972571,2.23218 -2.190285,8.77802 -0.220681,6.63506 -0.803243,9.61407 -2.696716,13.79004 -1.338703,2.95244 -2.615197,4.37802 -3.920185,4.37802 -0.525083,0 -2.762987,-0.45669 -4.973119,-1.01487 -8.7384075,-2.20691 -16.899255,-7.99009 -22.4711184,-15.92413 -2.9971326,-4.26777 -5.6717946,-10.40532 -6.6081606,-15.16378 -0.133633,-0.67909 -0.304928,-5.28284 -0.380656,-10.23055 -0.130948,-8.55547 -0.102649,-9.05212 0.578088,-10.14559 0.939345,-1.508868 2.699841,-2.551452 4.3111292,-2.553092 1.8752175,-0.0019 3.3471552,1.400839 4.8053884,4.579502 2.4959188,5.44062 5.70491159,8.97573 10.1016805,11.12828 4.7608163,2.33078 10.8998999,2.31244 15.7108529,-0.0469 5.794652,-2.84178 10.416092,-9.29253 11.473413,-16.014958 0.439653,-2.795305 0.508247,-3.955169 0.552875,-9.348611 0.05542,-6.6972 0.86116,-10.578061 3.168376,-15.260457 2.735008,-5.550583 6.641996,-10.004664 11.69698,-13.334904 5.374151,-3.540507 10.034078,-5.048727 16.522061,-5.34749 16.082446,-0.740575 30.382369,10.171372 34.079577,26.005352 0.335818,1.438202 0.639851,5.38368 0.815536,10.583333 0.238786,7.067194 0.395305,8.654595 1.060911,10.759725 2.28338,7.22169 8.10983,12.66725 14.55019,13.59901 8.92189,1.29077 16.9696,-4.28286 20.39954,-14.12818 0.70245,-2.016324 0.83006,-3.293549 1.05737,-10.583333 0.29639,-9.505119 0.73424,-11.779479 3.36181,-17.462499 3.42023,-7.397396 10.61649,-13.893955 18.79197,-16.964786 5.47506,-2.056517 11.37112,-2.470059 17.43319,-1.222741 6.05284,1.245421 10.12631,3.346775 15.7076,8.102982 4.26051,3.630672 8.15367,10.151704 9.8117,16.434545 0.37554,1.423045 0.65526,4.83335 0.8536,10.406943 0.20086,5.644314 0.47541,8.965843 0.86021,10.406939 0.92367,3.45922 2.8031,6.85707 5.30381,9.58883 2.66016,2.90596 5.07595,4.29343 9.14624,5.253 3.51133,0.8278 6.65197,0.3535 10.66518,-1.61065 4.0854,-1.99949 6.58058,-4.74773 9.17714,-10.10793 2.10483,-4.345095 3.13994,-5.413663 5.24415,-5.413663 1.39855,0 3.18953,1.125978 4.05885,2.551773 0.64256,1.05388 0.70112,1.78857 0.70233,8.81016 0.002,11.31507 -1.18294,16.39595 -5.45327,23.38404 -4.41489,7.22465 -10.36188,12.6691 -18.00513,16.48365 -2.3166,1.15616 -6.03036,2.52836 -7.96502,2.943 -4.22207,0.90489 -6.41644,1.21085 -8.68431,1.21085 -2.39087,0 -2.62669,-0.0609 -2.3905,-0.61736 2.35791,-5.55514 3.09962,-9.98507 3.07338,-18.35613 -0.0215,-6.86183 -0.2031,-7.4808 -2.47317,-8.42929 -1.14735,-0.4794 -1.39382,-0.47609 -2.46151,0.0331 -1.81669,0.86632 -2.20533,2.21959 -2.20871,7.69103 -0.006,8.93331 -0.9378,13.30692 -4.38273,20.56063 -4.35475,9.16942 -11.6864,17.82635 -21.19076,25.02121 -11.74776,8.89313 -26.61777,15.20913 -44.09722,18.73017 -4.14063,0.83409 -5.61413,0.94246 -15.16944,1.11567 -11.30117,0.20486 -14.59025,-0.0559 -21.343054,-1.69179 -3.747956,-0.90798 -8.48476,-2.33345 -9.135433,-2.74919 -0.848016,-0.54181 -0.197902,-1.24823 1.948895,-2.11769 7.615485,-3.08429 15.537432,-7.71297 20.592092,-12.03168 10.9815,-9.38261 20.43888,-23.11192 24.17517,-35.09518 1.47036,-4.71585 1.82939,-6.95084 1.90779,-11.87606 0.0956,-6.00479 -0.70086,-7.70407 -3.61082,-7.70407 -1.59765,0 -3.42255,1.53784 -3.4215,2.88328 0.003,4.39651 -0.42222,10.54444 -0.86607,12.50914 -1.3027,5.76626 -3.79042,9.9468 -6.71613,11.28623 -2.53893,1.16236 -6.65408,1.66595 -11.28492,1.38099 -4.08652,-0.25147 -4.97216,-0.56371 -4.43672,-1.56419 0.17495,-0.32689 0.66661,-1.85804 1.09259,-3.40254 0.66489,-2.41079 0.79876,-3.99469 0.94599,-11.19252 0.0943,-4.61138 0.0788,-8.75371 -0.0345,-9.20516 -0.1133,-0.45146 -0.62775,-1.24257 -1.14321,-1.75803 -1.47807,-1.47807 -4.17542,-1.20569 -5.096088,0.5146 -0.236368,0.44165 -0.440409,3.60898 -0.516499,8.0176 -0.13718,7.94821 -0.475881,10.21975 -2.296452,15.40143 -3.483812,9.91558 -10.19931,18.70314 -20.936143,27.39595 -10.50547,8.50549 -24.426969,15.15728 -38.670796,18.47716 -6.368911,1.48444 -7.377596,1.66363 -12.876387,2.28745 -4.249856,0.48213 -11.115223,0.60268 -17.1097213,0.30043 z M 68.599909,114.42717 c 2.215759,-1.32263 2.337348,-1.78936 2.456446,-9.42914 0.10145,-6.507719 0.05782,-7.095107 -0.632954,-8.522064 -1.760379,-3.636456 -6.83339,-3.532885 -8.736422,0.178363 -0.735543,1.43444 -0.79375,2.008954 -0.79375,7.834531 0,7.03689 0.223669,8.02503 2.16224,9.55247 1.405653,1.10755 4.029499,1.29014 5.54444,0.38584 z m 103.630931,-0.52864 c 1.7875,-1.66989 1.90405,-2.25763 1.90405,-9.60245 0,-6.528587 -0.037,-6.899843 -0.80079,-8.043211 -2.19096,-3.279676 -6.66672,-3.060972 -8.47002,0.413879 -0.55049,1.060758 -0.61562,2.059692 -0.52917,8.115942 0.0957,6.70048 0.12474,6.94441 0.97599,8.1855 1.15395,1.68239 1.92069,2.03255 4.15239,1.89629 1.37131,-0.0837 2.09273,-0.33553 2.76755,-0.96595 z M 56.941999,89.090468 c 2.845703,-1.480619 3.396366,-3.309417 3.07469,-10.211309 -0.322062,-6.910186 -0.810909,-8.072378 -3.798986,-9.031758 -1.719635,-0.552122 -3.201489,-0.20326 -4.690719,1.104301 -1.636085,1.436501 -1.918388,2.764518 -1.920675,9.035274 -0.0017,4.659782 0.09195,5.578008 0.688072,6.746505 1.271227,2.491811 4.31458,3.570866 6.647618,2.356987 z M 79.881312,88.64016 c 1.872204,-1.372026 2.177433,-2.579273 2.178034,-8.614595 3.17e-4,-3.179678 -0.169049,-6.009964 -0.401097,-6.702777 -1.174478,-3.50657 -5.103805,-4.895242 -8.005324,-2.829178 -1.867994,1.330129 -2.240436,3.026323 -2.112708,9.621811 0.106806,5.515158 0.158451,5.887873 0.982221,7.088663 0.478219,0.697086 1.351344,1.516992 1.940278,1.822012 1.399832,0.725001 4.172099,0.527547 5.418596,-0.385936 z m 81.081928,0.20485 c 0.65953,-0.407608 1.52429,-1.378461 1.9217,-2.15745 0.66277,-1.299139 0.71295,-1.931155 0.6064,-7.637367 -0.10928,-5.851691 -0.16495,-6.289403 -0.93774,-7.372871 -1.66142,-2.32936 -4.72547,-2.843366 -7.05624,-1.183712 -1.87877,1.337804 -2.23911,3.009383 -2.11217,9.798185 0.11183,5.980569 0.11553,6.004776 1.11943,7.319677 0.55397,0.725596 1.34772,1.456662 1.76388,1.624593 1.36716,0.551676 3.4501,0.378174 4.69474,-0.391055 z m 22.02712,-0.05968 c 2.15436,-1.439207 2.43232,-2.496668 2.43232,-9.253384 0,-5.013197 -0.10121,-6.1957 -0.61681,-7.206867 -0.83299,-1.633587 -2.16591,-2.540026 -4.0161,-2.731118 -2.1127,-0.218204 -3.78111,0.726225 -4.8028,2.718699 -0.72447,1.412842 -0.79375,2.035086 -0.79375,7.128978 0,5.780925 0.22583,6.947638 1.66091,8.580726 1.56425,1.780092 4.13517,2.099755 6.13623,0.762966 z"
         id="path1"
         sodipodi:nodetypes="cssssssssssssssssssssssssssssssssssssssssssssssssssssssccssssssssssscssssssssssssssccssssssssscsssssssssssssssssssssssssssssssssssss" /><path
         style="opacity:1;fill:#4d4d4d;fill-opacity:1"
         d="m 2.6514683,199.68636 c -0.9118768,-0.15717 -1.79633192,-0.37129 -1.96545583,-0.47582 -0.16912392,-0.10452 -1.21451354,-0.28798 -2.32308807,-0.40769 -1.1085745,-0.11971 -2.5605829,-0.44537 -3.2266853,-0.72369 -0.6661023,-0.27831 -1.6037001,-0.50602 -2.0835504,-0.50602 -0.4798504,0 -0.9721686,-0.16134 -1.0940404,-0.35854 -0.1218718,-0.19719 -0.3513782,-0.27831 -0.5100143,-0.18027 -0.1586361,0.098 -0.4846049,-0.0581 -0.724375,-0.34702 -0.2397701,-0.28891 -0.297445,-0.52566 -0.1281665,-0.52612 0.1692785,-4.6e-4 2.4997627,-0.31846 5.1788539,-0.70667 8.5807208,-1.24339 19.2809976,-4.19195 27.6842296,-7.62864 13.463414,-5.50616 26.323889,-14.85205 35.291139,-25.64658 5.460244,-6.57288 7.897095,-10.5931 10.835273,-17.8756 0.900242,-2.23132 1.898984,-4.34946 2.219426,-4.70698 2.097827,-2.34057 5.00024,-1.03131 5.00024,2.25556 0,1.00671 -1.367485,6.15385 -2.713248,10.21253 -0.788423,2.37779 -2.324823,5.78593 -2.740891,6.08001 -0.201682,0.14255 -0.255732,0.26161 -0.120112,0.26458 0.970605,0.0213 -5.177614,10.30124 -9.075735,15.17485 -2.239306,2.79968 -7.895917,8.38362 -10.394786,10.26123 -1.01045,0.75924 -1.731127,1.38044 -1.601503,1.38044 0.129623,0 2.407751,-1.10257 5.062505,-2.45015 7.937221,-4.029 15.348307,-9.36428 22.062878,-15.88317 10.282937,-9.98326 16.433182,-20.41429 19.6526,-33.33149 0.816795,-3.27721 1.400684,-4.88428 1.67494,-4.61002 0.259642,0.25964 0.164218,12.27213 -0.115004,14.47743 -0.287941,2.27416 -0.700593,4.42652 -0.894863,4.66754 -0.07647,0.0949 -0.07553,0.0917 -0.501273,1.67569 -0.156455,0.58208 -0.440762,1.25677 -0.631794,1.49931 -0.191031,0.24253 -0.229079,0.44097 -0.08455,0.44097 0.144529,0 0.06515,0.23812 -0.176389,0.52917 -0.241543,0.29104 -0.336697,0.52916 -0.211452,0.52916 0.125244,0 -0.03233,0.39688 -0.350155,0.88195 -0.31783,0.48507 -0.440552,0.88437 -0.272716,0.88734 0.167836,0.003 0.136525,0.12204 -0.06958,0.26459 -0.206105,0.14255 -0.836743,1.33074 -1.401417,2.64043 -0.564675,1.30968 -1.150106,2.38125 -1.300958,2.38125 -0.150852,0 -0.274277,0.20819 -0.274277,0.46264 0,0.25446 -0.317499,0.80345 -0.705555,1.21997 -0.388056,0.41653 -0.705556,0.83516 -0.705556,0.93029 0,0.0951 -0.396874,0.6012 -0.881944,1.1246 -0.485069,0.5234 -0.881944,1.0872 -0.881944,1.2529 0,0.16569 -0.277813,0.59991 -0.617361,0.96492 -0.339549,0.36501 -0.934861,1.08278 -1.322917,1.59505 -1.161223,1.5329 -3.354612,3.73852 -3.717799,3.73852 -0.18653,0 -0.339145,0.13237 -0.339145,0.29417 0,0.32763 -3.961074,4.36731 -5.523782,5.6334 -0.551434,0.44677 -1.384084,1.12146 -1.850335,1.49931 -0.46625,0.37785 -0.950142,0.687 -1.075314,0.687 -0.125173,0 -0.77557,0.55059 -1.445327,1.22352 -0.669758,0.67294 -1.376491,1.22894 -1.570519,1.23555 -0.194028,0.007 -0.898791,0.47869 -1.566141,1.04905 -0.667351,0.57036 -1.343159,0.9568 -1.501798,0.85876 -0.158638,-0.0981 -0.383321,0.069 -0.499296,0.37124 -0.115974,0.30222 -0.352978,0.46167 -0.526675,0.35431 -0.173696,-0.10735 -0.315812,-0.0271 -0.315812,0.17842 0,0.20548 -0.224896,0.3736 -0.499768,0.3736 -0.274873,0 -0.552685,0.13409 -0.617361,0.29799 -0.127897,0.32411 -1.476939,1.08733 -3.557176,2.01249 -0.727604,0.32359 -1.322916,0.73923 -1.322916,0.92364 0,0.18441 -0.142116,0.24746 -0.315812,0.14011 -0.173697,-0.10735 -0.41316,0.0585 -0.532141,0.36856 -0.123339,0.32142 -0.442513,0.47695 -0.742521,0.36183 -0.289406,-0.11106 -0.526193,-0.0388 -0.526193,0.1606 0,0.19939 -0.15875,0.26442 -0.352778,0.1445 -0.194027,-0.11992 -0.352777,-0.0405 -0.352777,0.17639 0,0.21693 -0.15875,0.2963 -0.352778,0.17639 -0.194028,-0.11992 -0.352778,-0.0405 -0.352778,0.17639 0,0.21693 -0.142115,0.30658 -0.315812,0.19923 -0.173697,-0.10735 -0.4107,0.0521 -0.526675,0.35432 -0.115975,0.30222 -0.36625,0.45346 -0.556168,0.33609 -0.189918,-0.11738 -0.746664,0.0496 -1.237214,0.37099 -0.490549,0.32142 -0.891908,0.46851 -0.891908,0.32687 0,-0.14165 -0.396875,0.002 -0.881945,0.32033 -0.485069,0.31783 -0.881944,0.48926 -0.881944,0.38094 0,-0.10831 -0.357188,-6.7e-4 -0.79375,0.2392 -0.436563,0.23988 -1.104359,0.4876 -1.483992,0.55049 -0.379633,0.0629 -0.813764,0.30878 -0.964736,0.54642 -0.150973,0.23763 -0.276927,0.29356 -0.279898,0.12428 -0.003,-0.16928 -0.243527,-0.11015 -0.534568,0.13139 -0.291042,0.24154 -0.529167,0.32092 -0.529167,0.17639 0,-0.14453 -0.238125,-0.0651 -0.529167,0.17639 -0.291041,0.24154 -0.529166,0.32092 -0.529166,0.17639 0,-0.14453 -0.238125,-0.0652 -0.529167,0.17639 -0.291041,0.24154 -0.529166,0.32091 -0.529166,0.17639 0,-0.14453 -0.238125,-0.0652 -0.529167,0.17638 -0.291042,0.24155 -0.529167,0.32092 -0.529167,0.17639 0,-0.14453 -0.238125,-0.0651 -0.529166,0.17639 -0.291042,0.24155 -0.529167,0.32092 -0.529167,0.17639 0,-0.14453 -0.238125,-0.0651 -0.529167,0.17639 -0.291041,0.24154 -0.529166,0.32092 -0.529166,0.17639 0,-0.14453 -0.238125,-0.0652 -0.529167,0.17639 -0.291041,0.24154 -0.529166,0.32092 -0.529166,0.17639 0,-0.14453 -0.231171,-0.0709 -0.513714,0.16356 -0.282542,0.23449 -0.668448,0.33071 -0.857568,0.21383 -0.18912,-0.11688 -0.430647,-0.0721 -0.536726,0.0996 -0.106079,0.17164 -1.148923,0.42024 -2.317431,0.55244 -1.168509,0.1322 -2.124561,0.38212 -2.124561,0.55537 0,0.17325 -0.345424,0.24848 -0.76761,0.16717 -0.422186,-0.0813 -0.938123,-0.0145 -1.146528,0.14856 -0.208404,0.16302 -0.617042,0.30839 -0.908084,0.32305 -0.291042,0.0147 -1.005416,0.12282 -1.5875,0.24035 -0.582083,0.11753 -1.375833,0.24624 -1.763889,0.28601 -0.388055,0.0398 -0.809181,0.21546 -0.935834,0.39041 -0.126654,0.17495 -2.452328,0.3337 -5.168165,0.35278 -2.715838,0.0191 -4.891416,0.11406 -4.834619,0.21107 0.176561,0.30158 -13.6620721,0.29849 -15.4137817,-0.003 z m 105.1982317,-0.006 c 0,-0.27799 -0.71653,-0.35702 -2.29306,-0.25291 -1.32814,0.0877 -2.29306,0.01 -2.29306,-0.18569 0,-0.18541 -0.47237,-0.26778 -1.04972,-0.18305 -0.57735,0.0847 -1.12044,-0.0163 -1.20687,-0.22454 -0.0971,-0.23403 -0.16778,-0.21355 -0.185,0.0536 -0.0205,0.31817 -0.26841,0.34078 -0.939398,0.0857 -0.501351,-0.19061 -1.06393,-0.25239 -1.250175,-0.13728 -0.186245,0.1151 -0.573635,0.0142 -0.860866,-0.22414 -0.287231,-0.23838 -0.622858,-0.3328 -0.745838,-0.20982 -0.122979,0.12298 -0.435797,0.0475 -0.695151,-0.16776 -0.259354,-0.21524 -0.789898,-0.3081 -1.178987,-0.20635 -0.389088,0.10175 -0.707434,0.038 -0.707434,-0.14165 0,-0.17966 -0.396875,-0.25469 -0.881944,-0.16673 -0.48507,0.088 -0.881945,0.0117 -0.881945,-0.16948 0,-0.18118 -0.238125,-0.32942 -0.529166,-0.32942 -0.291042,0 -0.529167,-0.12983 -0.529167,-0.28852 0,-0.15868 -0.584644,-0.24248 -1.299209,-0.1862 -1.251795,0.0986 -1.271381,0.0828 -0.536689,-0.43177 0.419386,-0.29375 1.361217,-0.51583 2.092959,-0.49351 1.370667,0.0418 6.331632,-0.70002 9.44433,-1.41224 3.2428,-0.74199 13.02064,-3.60885 15.7868,-4.62869 1.50372,-0.55439 2.73646,-0.89292 2.73943,-0.75228 0.003,0.14064 0.12203,0.0917 0.26458,-0.10881 0.14255,-0.20049 1.37044,-0.82472 2.72863,-1.38718 16.71763,-6.92321 32.52181,-19.83489 41.56847,-33.96056 1.79951,-2.8098 4.79681,-8.62922 5.91779,-11.4897 0.84371,-2.15297 2.26189,-3.77443 3.30124,-3.77443 1.1758,0 2.25224,0.97492 2.69011,2.4364 0.34538,1.15279 0.28762,1.74868 -0.39109,4.03494 -0.43797,1.47532 -0.89349,2.62295 -1.01225,2.55029 -0.11877,-0.0727 -0.22841,0.42126 -0.24366,1.09758 -0.0152,0.67632 -0.23402,1.35718 -0.48617,1.51302 -0.25215,0.15583 -0.34937,0.45983 -0.21604,0.67555 0.13332,0.21572 0.0919,0.39222 -0.092,0.39222 -0.18392,0 -0.32703,0.19844 -0.31802,0.44098 0.0452,1.21649 -0.12266,1.70009 -0.5075,1.46225 -0.27165,-0.16789 -0.34082,-0.0677 -0.20237,0.2931 0.2365,0.61632 -2.65421,7.29956 -3.34767,7.73973 -0.24583,0.15603 -0.3212,0.28613 -0.1675,0.2891 0.6166,0.0119 -4.44363,7.8845 -8.08876,12.58431 -1.22748,1.58263 -4.17941,4.66324 -6.55985,6.8458 -2.38044,2.18255 -4.56395,4.18516 -4.85225,4.45023 -0.66956,0.61562 6.00733,-2.42715 9.65071,-4.39798 11.25208,-6.08665 23.63114,-17.46645 30.42556,-27.96955 2.41294,-3.73003 7.16576,-13.19669 7.33725,-14.61435 0.10931,-0.90356 2.82944,-8.95993 2.97579,-8.81358 0.0913,0.0913 0.12985,1.27821 0.0858,2.63767 -0.0497,1.53085 0.0598,2.47174 0.28755,2.47174 0.25232,0 0.2558,0.29436 0.0111,0.938 -0.19615,0.5159 -0.27854,2.1777 -0.18309,3.69289 0.0954,1.51518 0.0268,2.84556 -0.15254,2.95641 -0.17935,0.11084 -0.31955,0.71123 -0.31156,1.3342 0.008,0.62296 -0.0857,1.52954 -0.20828,2.01461 -0.12254,0.48507 -0.28074,1.12007 -0.35157,1.41111 -0.0708,0.29104 -0.16076,0.56885 -0.19986,0.61736 -0.0391,0.0485 -0.10465,0.20726 -0.14566,0.35278 -0.041,0.14552 -0.19214,0.53 -0.33585,0.8544 -0.14371,0.32439 -0.29321,0.80064 -0.33223,1.05833 -0.039,0.25768 -0.19491,0.66696 -0.34643,0.90949 -0.15151,0.24254 -0.18115,0.44097 -0.0659,0.44097 0.11529,0 0.0116,0.35719 -0.23051,0.79375 -0.24208,0.43657 -0.40642,0.91282 -0.36519,1.05834 0.0412,0.14552 -0.0932,0.26458 -0.29865,0.26458 -0.20548,0 -0.27549,0.15875 -0.15557,0.35278 0.11991,0.19403 0.0405,0.35278 -0.17639,0.35278 -0.21693,0 -0.29631,0.15875 -0.17639,0.35277 0.11992,0.19403 0.0499,0.35278 -0.15557,0.35278 -0.20548,0 -0.33585,0.11906 -0.28972,0.26458 0.17595,0.55501 -0.88746,2.5387 -1.2431,2.3189 -0.22724,-0.14044 -0.28856,-0.0129 -0.15773,0.32807 0.12322,0.32109 -0.001,0.64039 -0.29282,0.75235 -0.27879,0.10698 -0.50689,0.51699 -0.50689,0.91114 0,0.39414 -0.15875,0.71663 -0.35278,0.71663 -0.19403,0 -0.35278,0.23812 -0.35278,0.52916 0,0.29105 -0.15875,0.52917 -0.35278,0.52917 -0.19402,0 -0.35277,0.23813 -0.35277,0.52917 0,0.29104 -0.15875,0.52916 -0.35278,0.52916 -0.19403,0 -0.35278,0.23813 -0.35278,0.52917 0,0.29104 -0.15875,0.52917 -0.35278,0.52917 -0.19403,0 -0.35278,0.22114 -0.35278,0.49142 0,0.27028 -0.23959,0.58337 -0.53243,0.69574 -0.29285,0.11237 -0.49128,0.3278 -0.44098,0.47872 0.0845,0.25336 -0.42911,0.89147 -2.21829,2.75625 -0.37887,0.39487 -0.68885,0.81595 -0.68885,0.93572 0,0.29783 -7.06463,7.34215 -7.36332,7.34215 -0.13141,0 -1.10101,0.83343 -2.15466,1.85208 -1.05364,1.01864 -1.79289,1.61396 -1.64276,1.32292 0.15012,-0.29105 -0.21417,0.0205 -0.80954,0.69223 -0.59538,0.67176 -1.08733,1.06864 -1.09323,0.88194 -0.006,-0.1867 -0.17253,-0.0616 -0.3703,0.27791 -0.19777,0.33955 -0.58982,0.61736 -0.87122,0.61736 -0.2814,0 -0.51164,0.15875 -0.51164,0.35278 0,0.19403 -0.20819,0.35278 -0.46264,0.35278 -0.25446,0 -0.7826,0.29807 -1.17365,0.66239 -0.39105,0.36432 -1.05598,0.7719 -1.47763,0.90572 -0.42165,0.13383 -0.76663,0.39137 -0.76663,0.57232 0,0.18096 -0.23813,0.32901 -0.52917,0.32901 -0.29104,0 -0.52916,0.15875 -0.52916,0.35278 0,0.19403 -0.23813,0.35278 -0.52917,0.35278 -0.29104,0 -0.52917,0.16811 -0.52917,0.37359 0,0.20548 -0.15875,0.27549 -0.35278,0.15557 -0.19402,-0.11991 -0.35277,-0.0625 -0.35277,0.12754 0,0.19006 -0.48698,0.45253 -1.08217,0.58325 -0.5952,0.13073 -1.16396,0.45082 -1.26392,0.71131 -0.10143,0.26433 -0.42826,0.37903 -0.73959,0.25956 -0.36923,-0.14168 -0.4716,-0.0745 -0.30276,0.19867 0.1632,0.26407 -0.007,0.41273 -0.4713,0.41273 -0.39951,0 -0.72637,0.14805 -0.72637,0.329 0,0.33495 -1.37063,0.92641 -1.85209,0.79922 -0.14552,-0.0384 -0.26458,0.0982 -0.26458,0.30371 0,0.20548 -0.15875,0.27548 -0.35278,0.15557 -0.19403,-0.11992 -0.35278,-0.0499 -0.35278,0.15557 0,0.20547 -0.11906,0.35236 -0.26458,0.3264 -0.63248,-0.11282 -2.57624,0.52648 -2.94248,0.96777 -0.22036,0.26552 -0.54142,0.39577 -0.71346,0.28944 -0.17205,-0.10633 -0.31281,10e-4 -0.31281,0.23907 0,0.23782 -0.10446,0.32794 -0.23212,0.20027 -0.12767,-0.12767 -0.43686,-0.0622 -0.68709,0.14546 -0.25022,0.20767 -0.9792,0.45859 -1.61995,0.5576 -0.64076,0.099 -1.41144,0.40018 -1.71264,0.66927 -0.3012,0.26908 -0.89242,0.54185 -1.31382,0.60616 -0.42141,0.0643 -0.87612,0.22686 -1.01047,0.36121 -0.13435,0.13435 -0.6147,0.24428 -1.06743,0.24428 -0.45273,0 -0.82315,0.16812 -0.82315,0.37359 0,0.20548 -0.1657,0.27119 -0.36823,0.14602 -0.20252,-0.12517 -0.57217,-0.0583 -0.82143,0.14855 -0.24927,0.20687 -0.83763,0.44687 -1.30747,0.53332 -0.46984,0.0865 -0.89394,0.18884 -0.94245,0.22751 -0.0485,0.0387 -0.24694,0.11 -0.44097,0.15851 -0.19403,0.0485 -0.47184,0.12635 -0.61736,0.17298 -0.14552,0.0466 -0.42333,0.12167 -0.61736,0.16675 -0.19403,0.0451 -0.43216,0.11829 -0.52917,0.16269 -0.097,0.0444 -0.41451,0.13867 -0.70555,0.2095 -0.29105,0.0708 -0.92605,0.23364 -1.41112,0.3618 -0.48507,0.12817 -1.29655,0.27887 -1.8033,0.33489 -0.50675,0.056 -1.22112,0.25648 -1.5875,0.44548 -0.36638,0.18899 -0.86991,0.27069 -1.11897,0.18155 -0.24906,-0.0891 -0.64594,-0.008 -0.88195,0.17971 -0.23601,0.18798 -0.7863,0.28336 -1.22286,0.21196 -0.43656,-0.0714 -0.79375,-0.0118 -0.79375,0.13254 0,0.1443 -0.51594,0.27924 -1.14653,0.29986 -0.63059,0.0206 -2.4959,0.15475 -4.14513,0.29806 -1.64924,0.14332 -3.19705,0.27197 -3.43959,0.28589 -0.24253,0.0139 -0.44097,0.15761 -0.44097,0.3193 0,0.16169 -1.54781,0.27014 -3.43958,0.241 -2.68775,-0.0414 -3.09259,-0.10577 -1.85209,-0.29447 0.87313,-0.13281 -0.45877,-0.18399 -2.95976,-0.11372 -2.501,0.0703 -4.68381,0.21214 -4.85069,0.31528 -0.16689,0.10314 -0.30343,0.006 -0.30343,-0.21681 z m 11.0243,-0.22371 c -0.24253,-0.0979 -0.63941,-0.0979 -0.88194,0 -0.24254,0.0979 -0.0441,0.17793 0.44097,0.17793 0.48507,0 0.6835,-0.0801 0.44097,-0.17793 z m -8.37847,-44.98224 c -1.55222,-0.13019 -3.2191,-0.30457 -3.70417,-0.38751 -0.48507,-0.0829 -0.99857,0.0236 -1.14112,0.23671 -0.17901,0.26763 -0.26086,0.25109 -0.26459,-0.0535 -0.003,-0.24775 -0.44337,-0.44097 -1.00494,-0.44097 -0.65329,0 -0.99953,-0.18331 -0.99953,-0.52917 0,-0.29104 0.13229,-0.52917 0.29398,-0.52917 0.16169,0 0.29398,-0.47625 0.29398,-1.05833 0,-0.58208 0.17573,-1.05833 0.39052,-1.05833 0.21479,0 0.30657,-0.21878 0.20396,-0.48618 -0.10261,-0.2674 -0.0507,-0.62459 0.11536,-0.79375 0.30876,-0.31453 0.69301,-2.44201 0.86794,-4.80549 0.0538,-0.7276 0.13607,-1.44198 0.1827,-1.5875 0.22006,-0.68666 0.25222,-1.25442 0.30245,-5.33924 l 0.0537,-4.3691 0.68768,0.87425 c 1.1254,1.43071 4.28197,3.3702 6.51878,4.00532 2.94739,0.83688 5.9631,0.54117 8.81896,-0.86477 2.64322,-1.30125 4.41327,-1.45609 4.47978,-0.39188 0.0243,0.38806 0.0737,0.904 0.10984,1.14653 0.0362,0.24254 -0.0556,0.60704 -0.20398,0.81001 -0.14835,0.20297 -0.265,0.67922 -0.25923,1.05833 0.0102,0.67113 -0.26919,2.62859 -0.42571,2.98236 -0.0429,0.097 -0.11492,0.33513 -0.16,0.52916 -0.0451,0.19403 -0.12012,0.47184 -0.16675,0.61736 -0.0466,0.14552 -0.11835,0.38365 -0.15936,0.52917 -0.19539,0.69333 -0.64384,1.76118 -1.09033,2.59633 -0.27071,0.50635 -0.39055,1.02229 -0.26631,1.14653 0.12423,0.12424 0.0514,0.22589 -0.16192,0.22589 -0.21329,0 -0.4969,0.34376 -0.63026,0.76392 -0.13335,0.42016 -0.7001,1.149 -1.25944,1.61966 -0.55934,0.47065 -0.92893,0.99819 -0.82132,1.17231 0.10761,0.17412 -0.0494,0.22256 -0.34886,0.10763 -0.32498,-0.1247 -0.63519,0.0273 -0.7694,0.3771 -0.13768,0.35877 -0.44248,0.50254 -0.78597,0.37073 -0.3086,-0.11842 -0.44933,-0.10355 -0.31274,0.033 0.13659,0.13659 -0.027,0.45743 -0.36353,0.71298 -0.72921,0.55373 -1.27045,0.62908 -0.96466,0.1343 0.11992,-0.19403 0.0499,-0.35278 -0.15557,-0.35278 -0.20547,0 -0.37359,0.16812 -0.37359,0.3736 0,0.20547 -0.15875,0.27548 -0.35278,0.15556 -0.19403,-0.11991 -0.35278,-0.0659 -0.35278,0.12005 0,0.47645 -2.50749,0.6267 -5.82083,0.3488 z m 94.80902,-0.52609 c -0.53939,-0.21765 -0.58102,-1.60187 -0.0637,-2.11915 0.20748,-0.20747 0.43346,-0.67578 0.50218,-1.04069 0.0687,-0.36491 0.15694,-0.70316 0.19604,-0.75167 0.12749,-0.15817 0.24658,-0.77906 0.29157,-1.52012 0.0273,-0.44986 0.19798,-0.63127 0.44833,-0.47655 0.28339,0.17515 0.33573,-0.0231 0.17509,-0.66311 -0.12602,-0.50212 -0.0722,-1.00992 0.11954,-1.12844 0.19177,-0.11852 0.33617,-0.56481 0.32088,-0.99176 -0.0153,-0.42694 0.0686,-1.49064 0.18645,-2.36376 0.11783,-0.87313 0.31193,-3.175 0.43132,-5.11528 0.1194,-1.94028 0.25794,-3.57582 0.30788,-3.63453 0.0499,-0.0587 0.45053,0.47532 0.89021,1.18673 1.77906,2.87858 7.37628,5.81222 11.04808,5.79056 6.77218,-0.0399 14.2918,-5.82887 20.12921,-15.49635 1.66,-2.74918 5.24872,-11.55775 5.70956,-14.01422 0.12097,-0.64485 0.33824,-1.17247 0.48281,-1.17247 0.62686,0 0.73674,8.02443 0.14008,10.23056 -0.13118,0.48507 -0.28381,1.19944 -0.33917,1.5875 -0.17501,1.22676 -0.3289,1.74881 -0.67597,2.29305 -0.1856,0.29104 -0.34232,0.76729 -0.34826,1.05834 -0.006,0.29104 -0.15197,0.75213 -0.32449,1.02464 -0.22465,0.35483 -0.18769,0.41761 0.13019,0.22115 0.26566,-0.16419 0.21623,0.0731 -0.12312,0.59101 -0.31185,0.47594 -0.44738,0.99719 -0.30118,1.15833 0.1462,0.16114 0.0674,0.17879 -0.17515,0.0392 -0.3967,-0.22829 -0.60322,0.17143 -0.48275,0.9344 0.023,0.14552 -0.10211,0.26458 -0.27797,0.26458 -0.17587,0 -0.24141,0.29958 -0.14566,0.66574 0.0958,0.36616 -0.0255,0.78907 -0.26937,0.93982 -0.31502,0.19469 -0.37618,0.0987 -0.21116,-0.33129 0.12777,-0.33295 0.0876,-0.51592 -0.0893,-0.4066 -0.17687,0.10931 -0.42304,0.66064 -0.54703,1.22517 -0.12399,0.56452 -0.61245,1.44401 -1.08547,1.9544 -0.47302,0.5104 -0.86004,1.14096 -0.86004,1.40125 0,0.26028 -0.23813,0.56462 -0.52917,0.6763 -0.29104,0.11169 -0.52916,0.38898 -0.52916,0.61622 0,0.22723 -0.27782,0.61629 -0.61737,0.86458 -0.33954,0.24828 -0.63107,0.58328 -0.64782,0.74444 -0.0697,0.6704 -0.59185,1.51182 -0.84216,1.35712 -0.14824,-0.0916 -1.31332,0.94117 -2.58908,2.29508 -1.27575,1.35391 -2.44752,2.46239 -2.60392,2.46329 -0.15641,9e-4 -0.7917,0.47715 -1.41177,1.05833 -0.62007,0.58119 -1.27777,1.0567 -1.46156,1.0567 -0.18379,0 -0.42941,0.24819 -0.54581,0.55153 -0.1164,0.30334 -0.37151,0.45272 -0.56691,0.33196 -0.1954,-0.12077 -0.35527,-0.0421 -0.35527,0.17485 0,0.21693 -0.15078,0.30122 -0.33508,0.18732 -0.18429,-0.1139 -0.51008,0.11992 -0.72398,0.51958 -0.21389,0.39967 -0.57905,0.69036 -0.81145,0.64598 -0.64375,-0.12294 -3.47164,1.30126 -3.17426,1.59865 0.14342,0.14341 -0.0122,0.15601 -0.34584,0.028 -0.3485,-0.13373 -0.60661,-0.0666 -0.60661,0.15774 0,0.21479 -0.11906,0.36028 -0.26458,0.32332 -0.583,-0.14808 -2.55764,0.49931 -2.55764,0.83853 0,0.19937 -0.21878,0.27854 -0.48618,0.17593 -0.2674,-0.10261 -0.68757,-5.3e-4 -0.9337,0.22684 -0.34464,0.31836 -0.39028,0.31202 -0.19856,-0.0276 0.13693,-0.24253 0.0887,-0.44097 -0.1071,-0.44097 -0.19584,0 -0.51788,0.27781 -0.71565,0.61736 -0.25434,0.43668 -0.36272,0.4723 -0.37031,0.12171 -0.009,-0.41055 -0.11671,-0.40346 -0.62809,0.0413 -0.61963,0.53896 -0.80767,0.58097 -3.0868,0.6895 -0.6791,0.0323 -1.23472,0.16359 -1.23472,0.29168 0,0.12808 -0.51594,0.1798 -1.14653,0.11492 -0.93299,-0.096 -1.01512,-0.0564 -0.44097,0.21269 0.63264,0.29649 0.60315,0.33322 -0.28541,0.35545 -0.54502,0.0136 -0.91768,-0.0943 -0.82812,-0.23979 0.0896,-0.14552 -0.30364,-0.29833 -0.87378,-0.33957 -0.59093,-0.0427 -0.94639,0.071 -0.82675,0.26458 0.21725,0.35152 -0.73331,0.41832 -1.50747,0.10594 z M 17.432965,153.2527 c -0.05071,-0.0507 -0.625176,-0.1861 -1.276595,-0.30086 -0.651419,-0.11476 -1.469598,-0.36129 -1.818174,-0.54785 -0.855919,-0.45807 -1.118871,-0.42663 -0.851207,0.10179 0.122853,0.24253 -0.0026,0.16552 -0.27881,-0.17113 -0.276199,-0.33666 -0.883284,-0.65416 -1.349078,-0.70556 -0.465794,-0.0514 -0.940557,-0.22046 -1.055029,-0.37571 -0.114472,-0.15524 -0.551034,-0.30808 -0.9701384,-0.33965 -0.4191044,-0.0316 -0.762008,-0.19174 -0.762008,-0.35593 0,-0.16419 -0.1459516,-0.20832 -0.3243368,-0.0981 -0.1783853,0.11025 -0.563921,-0.0391 -0.856746,-0.33196 -0.292825,-0.29282 -0.7818734,-0.53241 -1.0867741,-0.53241 -0.3049008,0 -0.5543651,-0.18521 -0.5543651,-0.41157 0,-0.22637 -0.096274,-0.3153 -0.2139418,-0.19763 -0.1176679,0.11766 -0.5385846,-0.0885 -0.9353703,-0.45817 -0.3967857,-0.36967 -0.8395023,-0.59914 -0.9838146,-0.50995 -0.1443123,0.0892 -0.3572744,-0.0851 -0.473249,-0.38734 -0.1159747,-0.30223 -0.3540997,-0.46098 -0.5291667,-0.35278 -0.1750669,0.1082 -0.4093308,-0.0405 -0.5205863,-0.33042 -0.1112555,-0.28992 -0.4284056,-0.52714 -0.704778,-0.52714 -0.2763724,0 -0.5977334,-0.24818 -0.7141357,-0.55152 -0.1164023,-0.30334 -0.36453758,-0.45703 -0.55141169,-0.34154 -0.1868741,0.11549 -0.60312812,-0.19194 -0.92500892,-0.6832 -0.3218808,-0.49125 -0.76541749,-0.8958 -0.98563709,-0.89901 -0.2202196,-0.003 -1.0767503,-0.75727 -1.9034017,-1.67569 -2.1956644,-2.43943 -2.6354441,-2.97753 -3.6122749,-4.41981 -0.4850694,-0.7162 -1.0010068,-1.30327 -1.1465277,-1.30459 -0.1455208,-0.001 -0.2645833,-0.32928 -0.2645833,-0.72879 0,-0.39951 -0.15875,-0.62826 -0.3527777,-0.50835 -0.1940278,0.11992 -0.3527778,-0.0295 -0.3527778,-0.33195 0,-0.3025 -0.1681189,-0.54999 -0.3735976,-0.54999 -0.2054787,0 -0.2838646,-0.14519 -0.1741909,-0.32265 0.1096738,-0.17745 0.079355,-0.37589 -0.067375,-0.44097 -0.2510607,-0.11135 -3.0266569,-5.45712 -3.1294859,-6.02735 -0.02624,-0.14552 -0.0874,-0.34396 -0.135906,-0.44097 -0.04851,-0.097 -0.110469,-0.29546 -0.137693,-0.44098 -0.02722,-0.14552 -0.1755,-0.46302 -0.329502,-0.70555 -0.154,-0.24254 -0.195186,-0.44097 -0.09152,-0.44097 0.103662,0 0.01962,-0.43657 -0.186753,-0.97014 -0.206376,-0.53358 -0.431795,-1.36702 -0.50093,-1.85209 -0.06913,-0.48507 -0.30548,-1.99319 -0.52521,-3.35139 -0.219731,-1.35819 -0.445423,-3.73944 -0.501538,-5.29166 l -0.102028,-2.82222 0.242088,2.46944 c 0.236673,2.4142 0.24399,2.38263 0.327045,-1.41111 l 0.08496,-3.88056 0.67999,2.52999 c 3.8878923,14.46536 10.6691373,24.36434 19.7280696,28.79822 2.1665705,1.06042 2.5341103,1.12735 6.1912784,1.12735 3.67837,0 4.011192,-0.0616 6.17361,-1.1429 2.092779,-1.04645 6.308174,-4.21601 6.06218,-4.55815 -0.148985,-0.20722 1.319197,-2.0208 1.494234,-1.84577 0.208974,0.20898 0.220312,6.60872 0.01431,8.07598 -0.355479,2.53191 -0.434715,3.00077 -0.521657,3.08681 -0.04902,0.0485 -0.128808,0.24694 -0.177315,0.44097 -0.04851,0.19403 -0.127882,0.43215 -0.17639,0.52917 -0.04851,0.097 -0.127881,0.33514 -0.176389,0.52917 -0.04851,0.19402 -0.126836,0.47184 -0.174067,0.61736 -0.04723,0.14552 -0.06708,0.38364 -0.0441,0.52916 0.02298,0.14552 -0.126342,0.26459 -0.331821,0.26459 -0.205479,0 -0.282264,0.14778 -0.170634,0.3284 0.111629,0.18062 0.03903,0.42971 -0.161324,0.55354 -0.200358,0.12383 -0.272953,0.37292 -0.161323,0.55354 0.111629,0.18062 0.02548,0.3284 -0.191455,0.3284 -0.216929,0 -0.304214,0.14596 -0.193966,0.32434 0.110248,0.17839 -0.03157,0.55636 -0.315159,0.83995 -0.283585,0.28358 -0.417336,0.61388 -0.297224,0.734 0.120113,0.12011 0.03318,0.21838 -0.193188,0.21838 -0.226365,0 -0.411574,0.21869 -0.411574,0.48597 0,0.85054 -0.995579,1.35393 -2.823972,1.42787 -0.976563,0.0395 -1.817057,0.0303 -1.867765,-0.0204 z M 200.69902,131.78009 c 0.007,-0.58209 0.0863,-0.7775 0.1757,-0.43426 0.0894,0.34324 0.0836,0.81949 -0.0131,1.05833 -0.0966,0.23884 -0.16981,-0.042 -0.16262,-0.62407 z"
         id="path2" /></g></g></svg>
